<svg width="270" height="90" viewBox="0 0 270 90" fill="none" xmlns="http://www.w3.org/2000/svg">
<path d="M22.0911 5.95032H4.9148C3.57162 5.95032 2.47775 7.0391 2.47775 8.38737V25.5637C2.47775 26.9069 3.56653 28.0008 4.9148 28.0008H13.4928L18.1786 34.2282H20.6564V27.9957H22.0911C23.4343 27.9957 24.5282 26.9069 24.5282 25.5586V8.38737C24.5231 7.0391 23.4343 5.95032 22.0911 5.95032Z" fill="#D8A159"/>
<path d="M19.6083 5.95032H2.43705C1.09388 5.95032 0 7.0391 0 8.38737V25.5637C0 26.9069 1.08879 28.0008 2.43705 28.0008H11.0151L18.1837 34.2282V27.9957H19.6134C20.9566 27.9957 22.0505 26.9069 22.0505 25.5586V8.38737C22.0454 7.0391 20.9566 5.95032 19.6083 5.95032Z" fill="#FFC979"/>
<path d="M18.8095 22.9131C19.3234 23.4269 19.3234 24.2562 18.8095 24.7701C18.2957 25.284 17.4664 25.284 16.9525 24.7701L13.2995 21.1171C12.7856 20.6032 12.7856 19.7739 13.2995 19.26C13.8133 18.7462 14.6426 18.7462 15.1565 19.26L18.8095 22.9131Z" fill="white"/>
<path d="M12.0682 18.0338C10.0687 20.0333 6.80746 20.0333 4.80796 18.0338C2.80846 16.0343 2.80846 12.773 4.80796 10.7735C6.80746 8.77405 10.0687 8.77405 12.0682 10.7735C14.0728 12.773 14.0728 16.0292 12.0682 18.0338ZM5.62709 11.5927C4.07532 13.1445 4.07532 15.6629 5.62709 17.2147C7.17886 18.7665 9.69731 18.7665 11.2491 17.2147C12.8009 15.6629 12.8009 13.1445 11.2491 11.5927C9.7024 10.0409 7.17886 10.0409 5.62709 11.5927Z" fill="white"/>
<path d="M12.0692 17.213L11.249 18.0332L15.2315 22.0157L16.0517 21.1955L12.0692 17.213Z" fill="white"/>
<path d="M245.728 5.95032H201.91C198.756 5.95032 196.201 8.4967 196.201 11.6406V38.4391C196.201 41.583 198.756 44.1294 201.91 44.1294H221.592L218.455 55.6719H221.592L234.114 45.1294H245.728C248.882 45.1294 251.437 41.583 251.437 38.4391V11.635C251.437 8.4967 248.882 5.95032 245.728 5.95032Z" fill="#109CDE"/>
<path d="M242.591 5.95032H198.773C195.619 5.95032 193.064 8.4967 193.064 11.6406V38.4391C193.064 41.583 195.619 44.1294 198.773 44.1294H218.455V55.6719L230.977 44.1294H242.591C245.745 44.1294 248.3 41.583 248.3 38.4391V11.635C248.294 8.4967 245.739 5.95032 242.591 5.95032Z" fill="white"/>
<path d="M208.202 21.4576C207.401 21.4576 206.773 21.7871 206.325 22.4404C205.877 23.0938 205.653 23.9984 205.653 25.1431C205.653 27.5332 206.566 28.7282 208.387 28.7282C208.936 28.7282 209.474 28.65 209.989 28.4992C210.505 28.3485 211.026 28.1642 211.547 27.9464V30.7832C210.505 31.2411 209.334 31.47 208.017 31.47C206.135 31.47 204.695 30.9284 203.692 29.8394C202.689 28.7505 202.19 27.1814 202.19 25.1264C202.19 23.842 202.431 22.714 202.919 21.7368C203.406 20.7652 204.101 20.0113 205.014 19.492C205.927 18.967 206.997 18.7046 208.23 18.7046C209.575 18.7046 210.863 18.995 212.09 19.5813L211.059 22.2226C210.6 22.0048 210.141 21.8261 209.681 21.681C209.222 21.5302 208.729 21.4576 208.202 21.4576Z" fill="#0CACF8"/>
<path d="M219.407 31.3025L216.858 22.3567H216.78C216.897 23.8811 216.959 25.065 216.959 25.9082V31.3025H213.978V18.8833H218.46L221.06 27.7007H221.127L223.676 18.8833H228.17V31.3025H225.077V25.8579C225.077 25.5731 225.083 25.2604 225.088 24.9142C225.099 24.568 225.133 23.7248 225.206 22.3734H225.127L222.612 31.3025H219.407Z" fill="#0CACF8"/>
<path d="M238.999 27.5332C238.999 28.3038 238.803 28.9851 238.411 29.5826C238.019 30.1801 237.453 30.6436 236.714 30.9731C235.974 31.3025 235.111 31.4701 234.114 31.4701C233.285 31.4701 232.59 31.4142 232.024 31.297C231.464 31.1797 230.876 30.9787 230.271 30.6883V27.7007C230.915 28.0302 231.582 28.2871 232.271 28.4714C232.965 28.6556 233.599 28.745 234.181 28.745C234.68 28.745 235.05 28.6612 235.279 28.4881C235.515 28.315 235.627 28.0916 235.627 27.8236C235.627 27.6561 235.582 27.5053 235.487 27.3769C235.391 27.2484 235.24 27.12 235.033 26.9915C234.826 26.8631 234.271 26.5951 233.374 26.193C232.562 25.8245 231.951 25.4671 231.548 25.1208C231.139 24.7746 230.842 24.3781 230.646 23.9314C230.45 23.4847 230.355 22.9542 230.355 22.3455C230.355 21.2007 230.775 20.3073 231.61 19.6707C232.444 19.0285 233.593 18.7102 235.055 18.7102C236.344 18.7102 237.66 19.0062 238.999 19.6037L237.969 22.1947C236.803 21.6642 235.8 21.3962 234.954 21.3962C234.517 21.3962 234.198 21.4744 234.002 21.6251C233.806 21.7759 233.705 21.9658 233.705 22.1947C233.705 22.4404 233.834 22.6582 234.086 22.8481C234.338 23.0379 235.027 23.3897 236.142 23.9035C237.218 24.3837 237.963 24.9031 238.378 25.4559C238.792 25.9976 238.999 26.6956 238.999 27.5332Z" fill="#0CACF8"/>
<path d="M109.709 51.4381H79.048C76.8408 51.4381 75.0547 53.2184 75.0547 55.4183V74.1706C75.0547 76.2822 76.7078 78.0095 78.7953 78.1376L76.597 85.6076H78.7953L86.8839 79.1508H109.709C111.916 79.1508 113.702 76.3706 113.702 74.1706V55.4183C113.702 53.2184 111.912 51.4381 109.709 51.4381Z" fill="#109CDE"/>
<path d="M107.511 51.4381H76.8497C74.6425 51.4381 72.8564 53.2184 72.8564 55.4183V74.1706C72.8564 76.2822 74.5095 78.0094 76.597 78.1376V85.6076L84.6856 78.1508H107.511C109.718 78.1508 111.504 76.3706 111.504 74.1706V55.4183C111.504 53.2184 109.718 51.4381 107.511 51.4381Z" fill="white"/>
<path d="M84.5969 60.3968C83.8124 60.3968 83.2052 60.7149 82.7665 61.3554C82.3277 61.9959 82.1105 62.875 82.1105 64.0015C82.1105 66.3384 83.0014 67.5046 84.7831 67.5046C85.3238 67.5046 85.8423 67.4295 86.3476 67.2793C86.8528 67.1291 87.3625 66.948 87.8722 66.7404V69.5146C86.8573 69.9607 85.7049 70.186 84.4241 70.186C82.5848 70.186 81.1754 69.6559 80.1959 68.5913C79.2164 67.5267 78.7244 65.9938 78.7244 63.9838C78.7244 62.7293 78.9638 61.6249 79.438 60.6707C79.9122 59.7209 80.5948 58.9876 81.4856 58.4752C82.3765 57.9628 83.4269 57.7065 84.6279 57.7065C85.9443 57.7065 87.203 57.9937 88.3996 58.5635L87.3936 61.1434C86.9459 60.9313 86.4938 60.7546 86.0462 60.6133C85.5941 60.4675 85.111 60.3968 84.5969 60.3968Z" fill="#0CACF8"/>
<path d="M92.6234 65.1368H89.5254V62.9104H92.6234V59.8623H94.866V62.9104H97.9641V65.1368H94.866V68.1319H92.6234V65.1368Z" fill="#0CACF8"/>
<path d="M102.276 65.1368H99.1784V62.9104H102.276V59.8623H104.519V62.9104H107.617V65.1368H104.519V68.1319H102.276V65.1368Z" fill="#0CACF8"/>
<path d="M142.498 42.0927C149.527 42.0927 155.226 36.4131 155.226 29.407C155.226 22.4008 149.527 16.7212 142.498 16.7212C135.469 16.7212 129.77 22.4008 129.77 29.407C129.77 36.4131 135.469 42.0927 142.498 42.0927Z" fill="#7178C6"/>
<path d="M139.776 42.0927C146.805 42.0927 152.504 36.4131 152.504 29.407C152.504 22.4008 146.805 16.7212 139.776 16.7212C132.747 16.7212 127.049 22.4008 127.049 29.407C127.049 36.4131 132.747 42.0927 139.776 42.0927Z" fill="#0CACF8"/>
<path d="M133.649 26.996C133.112 26.996 132.69 27.2156 132.387 27.6548C132.084 28.094 131.932 28.7024 131.932 29.4755C131.932 31.0813 132.547 31.8864 133.773 31.8864C134.145 31.8864 134.503 31.8361 134.851 31.7309C135.2 31.6302 135.549 31.5022 135.898 31.3603V33.268C135.2 33.5745 134.406 33.7301 133.525 33.7301C132.263 33.7301 131.29 33.3641 130.615 32.6321C129.94 31.9002 129.605 30.8434 129.605 29.4618C129.605 28.5972 129.77 27.8378 130.096 27.1836C130.422 26.5294 130.895 26.0262 131.505 25.6739C132.12 25.3217 132.841 25.1478 133.667 25.1478C134.571 25.1478 135.439 25.3445 136.26 25.738L135.567 27.513C135.26 27.3666 134.948 27.2476 134.64 27.147C134.333 27.0463 134.002 26.996 133.649 26.996Z" fill="white"/>
<path d="M143.007 31.0767C143.007 31.5937 142.874 32.0557 142.613 32.4537C142.351 32.8563 141.97 33.1674 141.474 33.3915C140.979 33.6157 140.396 33.7255 139.726 33.7255C139.166 33.7255 138.702 33.6843 138.321 33.6065C137.94 33.5288 137.55 33.3915 137.142 33.1994V31.1911C137.573 31.4107 138.023 31.5845 138.487 31.708C138.95 31.8315 139.382 31.8956 139.772 31.8956C140.107 31.8956 140.355 31.8361 140.511 31.7217C140.667 31.6074 140.745 31.4564 140.745 31.2734C140.745 31.1591 140.713 31.0584 140.648 30.9715C140.584 30.8846 140.483 30.7976 140.345 30.7107C140.208 30.6238 139.836 30.4454 139.23 30.1755C138.684 29.9284 138.275 29.686 138 29.4572C137.725 29.2239 137.523 28.9586 137.394 28.6567C137.261 28.3547 137.197 27.9979 137.197 27.5907C137.197 26.8222 137.477 26.2229 138.041 25.7929C138.601 25.3628 139.372 25.1478 140.355 25.1478C141.222 25.1478 142.108 25.3491 143.007 25.7471L142.314 27.4901C141.53 27.1333 140.855 26.9549 140.286 26.9549C139.992 26.9549 139.776 27.0052 139.643 27.1104C139.51 27.211 139.441 27.3391 139.441 27.4947C139.441 27.6594 139.528 27.8058 139.698 27.9338C139.868 28.0619 140.332 28.2998 141.08 28.6429C141.8 28.9677 142.305 29.3154 142.585 29.686C142.87 30.0474 143.007 30.514 143.007 31.0767Z" fill="white"/>
<path d="M149.782 31.0767C149.782 31.5937 149.649 32.0557 149.387 32.4537C149.126 32.8563 148.745 33.1674 148.249 33.3915C147.753 33.6157 147.17 33.7255 146.5 33.7255C145.945 33.7255 145.477 33.6843 145.096 33.6065C144.719 33.5288 144.325 33.3915 143.916 33.1994V31.1911C144.348 31.4107 144.798 31.5845 145.261 31.708C145.729 31.8315 146.156 31.8956 146.546 31.8956C146.881 31.8956 147.129 31.8361 147.285 31.7217C147.441 31.6074 147.519 31.4564 147.519 31.2734C147.519 31.1591 147.487 31.0584 147.423 30.9715C147.359 30.8846 147.258 30.7976 147.12 30.7107C146.982 30.6238 146.61 30.4454 146.005 30.1755C145.458 29.9284 145.05 29.686 144.775 29.4572C144.499 29.2239 144.297 28.9586 144.169 28.6567C144.036 28.3547 143.971 27.9979 143.971 27.5907C143.971 26.8222 144.251 26.2229 144.811 25.7929C145.371 25.3628 146.142 25.1478 147.125 25.1478C147.992 25.1478 148.878 25.3491 149.777 25.7471L149.084 27.4901C148.3 27.1333 147.625 26.9549 147.056 26.9549C146.762 26.9549 146.546 27.0052 146.413 27.1104C146.28 27.211 146.211 27.3391 146.211 27.4947C146.211 27.6594 146.298 27.8058 146.468 27.9338C146.638 28.0619 147.102 28.2998 147.85 28.6429C148.57 28.9677 149.075 29.3154 149.355 29.686C149.64 30.0474 149.782 30.514 149.782 31.0767Z" fill="white"/>
<path d="M49.8329 61.4864C49.8329 52.6624 42.6578 45.5109 33.8048 45.5109C24.9518 45.5109 17.7766 52.6624 17.7766 61.4864C17.7766 70.3103 24.9518 77.4619 33.8048 77.4619C35.9805 77.4619 38.0489 77.0299 39.9414 76.2471L41.8983 80.8451H44.5546V73.3386C47.7946 70.413 49.8329 66.187 49.8329 61.4864Z" fill="#109CDE"/>
<path d="M47.1723 61.4864C47.1723 52.6624 39.9972 45.5109 31.1442 45.5109C22.2911 45.5109 15.116 52.6624 15.116 61.4864C15.116 70.3103 22.2911 77.4619 31.1442 77.4619C33.3199 77.4619 35.3883 77.0299 37.2808 76.2471L41.894 80.8451V73.3386C45.1339 70.413 47.1723 66.187 47.1723 61.4864Z" fill="#0CACF8"/>
<path d="M25.4753 69.2068C24.8488 69.2068 24.2566 69.1469 23.6944 69.0229V66.3667C23.8789 66.4009 24.0763 66.4394 24.2866 66.4822C24.4969 66.525 24.72 66.5464 24.9646 66.5464C25.5311 66.5464 25.9388 66.3753 26.1791 66.0374C26.4237 65.6952 26.5438 65.1135 26.5438 64.288V52.5769H29.9898V63.9929C29.9898 65.708 29.6122 67.004 28.8612 67.8851C28.1102 68.7663 26.9816 69.2068 25.4753 69.2068Z" fill="white"/>
<path d="M40.1345 62.2221C40.1345 63.2743 39.774 64.0656 39.0574 64.6045C38.3407 65.1392 37.3108 65.4087 35.9676 65.4087C35.2381 65.4087 34.603 65.3702 34.0666 65.2932C33.5301 65.2162 32.9766 65.0708 32.4144 64.8655V62.158C32.9422 62.3889 33.5173 62.5814 34.1481 62.7311C34.7746 62.8808 35.3368 62.9578 35.8303 62.9578C36.5641 62.9578 36.9332 62.791 36.9332 62.4574C36.9332 62.2863 36.8302 62.128 36.6242 61.9954C36.4182 61.8586 35.8217 61.5976 34.8304 61.2041C33.9292 60.8363 33.2941 60.4129 32.9379 59.9466C32.5775 59.4761 32.4015 58.8816 32.4015 58.1587C32.4015 57.2477 32.7534 56.5377 33.4615 56.0287C34.1696 55.5197 35.1651 55.2673 36.4568 55.2673C37.1048 55.2673 37.7142 55.34 38.2849 55.4812C38.8557 55.6223 39.4479 55.8277 40.0616 56.1014L39.1389 58.2828C38.6883 58.0818 38.2077 57.9107 37.7056 57.7695C37.2035 57.6284 36.7916 57.5557 36.474 57.5557C35.9161 57.5557 35.6415 57.6925 35.6415 57.962C35.6415 58.1288 35.7402 58.2742 35.9333 58.3897C36.1264 58.5095 36.6886 58.749 37.6155 59.1126C38.3064 59.3949 38.8171 59.6729 39.1561 59.9424C39.4951 60.2118 39.744 60.5326 39.9028 60.9005C40.0573 61.2512 40.1345 61.696 40.1345 62.2221Z" fill="white"/>
<path d="M93.8023 0H71.2791C69.5167 0 68.0855 1.42651 68.0855 3.18315V25.6364C68.0855 27.393 69.5167 28.8195 71.2791 28.8195H84.5239L89.7049 35.0513H91.7904V28.8195H93.8064C95.5688 28.8195 97 27.393 97 25.6364V3.18315C97 1.42651 95.5688 0 93.8023 0Z" fill="#109CDE"/>
<path d="M91.7209 0H69.1936C67.4312 0 66 1.42651 66 3.18315V25.6364C66 27.393 67.4312 28.8195 69.1936 28.8195H82.4385L89.7049 35.0513V28.8195H91.7209C93.4833 28.8195 94.9145 27.393 94.9145 25.6364V3.18315C94.9145 1.42651 93.4833 0 91.7209 0Z" fill="#0CACF8"/>
<path d="M77.4374 18.0595L69.9624 14.75V13.4825L77.4374 9.75317V11.9418L72.8534 14.0286L77.4374 15.8872V18.0595Z" fill="white"/>
<path d="M84.663 8.4408L80.6351 19.5186H78.0753L82.1032 8.4408H84.663Z" fill="white"/>
<path d="M85.2232 15.8831L89.8071 14.0245L85.2232 11.9418V9.75317L92.6982 13.4825V14.75L85.2232 18.0595V15.8831Z" fill="white"/>
<path d="M266.015 63.9503H244.385C242.693 63.9503 241.316 65.3177 241.316 67.0092V79.9194C241.316 81.6065 242.688 82.9783 244.385 82.9783L243.067 89.0516H245.383L251.966 82.9739H266.015C267.707 82.9739 269.084 81.6065 269.084 79.915V67.0047C269.084 65.3177 267.707 63.9503 266.015 63.9503Z" fill="#109CDE"/>
<path d="M263.699 63.9503H242.069C240.376 63.9503 239 65.3177 239 67.0092V79.9194C239 81.6065 240.372 82.9783 242.069 82.9783H243.067V89.0516L249.654 82.9739H263.703C265.396 82.9739 266.772 81.6065 266.772 79.915V67.0047C266.767 65.3177 265.396 63.9503 263.699 63.9503Z" fill="#0CACF8"/>
<path d="M248.042 76.8739H247.075V74.2324H244.363V76.8739H243.401V71.0093H244.363V73.4066H247.075V71.0093H248.042V76.8739Z" fill="white"/>
<path d="M251.623 76.8739H250.661V71.8306H248.933V71.0093H253.356V71.8306H251.628V76.8739H251.623Z" fill="white"/>
<path d="M256.795 76.8739L255.089 71.9771H255.057C255.102 72.7052 255.124 73.3844 255.124 74.0237V76.8739H254.251V71.0093H255.605L257.24 75.6753H257.262L258.946 71.0093H260.304V76.8739H259.378V73.9749C259.378 73.6819 259.387 73.3045 259.4 72.8339C259.414 72.3678 259.427 72.0837 259.44 71.9815H259.409L257.641 76.8695H256.795V76.8739Z" fill="white"/>
<path d="M261.859 76.8739V71.0093H262.821V76.0526H265.311V76.8739H261.859Z" fill="white"/>
<path d="M182.314 65.6096C182.314 56.8444 175.186 49.7446 166.397 49.7446C157.603 49.7446 150.48 56.8497 150.48 65.6096C150.48 73.6862 156.537 80.3482 164.367 81.3411L166.504 88.1152H168.989L171.131 80.7592C177.612 78.7521 182.314 72.7307 182.314 65.6096Z" fill="#D8A159"/>
<path d="M179.834 65.6096C179.834 56.8444 172.706 49.7446 163.917 49.7446C155.123 49.7446 148 56.8497 148 65.6096C148 73.6862 154.057 80.3482 161.887 81.3411L166.509 88.1152L168.652 80.7592C175.127 78.7521 179.834 72.7307 179.834 65.6096Z" fill="#FFC979"/>
<path d="M159.879 63.5331C159.879 64.4619 159.606 65.1825 159.054 65.6897C158.503 66.1968 157.721 66.4477 156.708 66.4477H156.076V69.2075H153.822V60.88H156.714C157.769 60.88 158.561 61.1095 159.092 61.5686C159.611 62.033 159.879 62.6843 159.879 63.5331ZM156.071 64.6114H156.483C156.821 64.6114 157.094 64.5153 157.292 64.3284C157.49 64.1363 157.592 63.8747 157.592 63.5437C157.592 62.9832 157.281 62.7003 156.655 62.7003H156.071V64.6114Z" fill="white"/>
<path d="M168.368 69.2075H166.097V65.8124H163.473V69.2075H161.202V60.88H163.473V63.9654H166.097V60.88H168.368V69.2075Z" fill="white"/>
<path d="M176.235 63.5331C176.235 64.4619 175.962 65.1825 175.411 65.6897C174.859 66.1968 174.077 66.4477 173.065 66.4477H172.433V69.2075H170.178V60.88H173.07C174.125 60.88 174.918 61.1095 175.448 61.5686C175.973 62.033 176.235 62.6843 176.235 63.5331ZM172.433 64.6114H172.845C173.183 64.6114 173.456 64.5153 173.654 64.3284C173.852 64.1363 173.954 63.8747 173.954 63.5437C173.954 62.9832 173.643 62.7003 173.017 62.7003H172.433V64.6114Z" fill="white"/>
</svg>
