<svg width="56" height="56" viewBox="0 0 56 56" fill="none" xmlns="http://www.w3.org/2000/svg">
<g clip-path="url(#clip0)">
<path d="M47.8333 56.0002H19.8333C16.618 56.0002 14 53.3845 14 50.1668V15.1668C14 11.9492 16.618 9.3335 19.8333 9.3335H47.8333C51.0487 9.3335 53.6667 11.9492 53.6667 15.1668V50.1668C53.6667 53.3845 51.0487 56.0002 47.8333 56.0002ZM19.8333 11.6668C17.9037 11.6668 16.3333 13.2372 16.3333 15.1668V50.1668C16.3333 52.0965 17.9037 53.6668 19.8333 53.6668H47.8333C49.763 53.6668 51.3333 52.0965 51.3333 50.1668V15.1668C51.3333 13.2372 49.763 11.6668 47.8333 11.6668H19.8333Z" fill="#6B7181"/>
<path d="M10.5002 49H8.16683C4.9515 49 2.3335 46.3843 2.3335 43.1667V5.83333C2.3335 2.61567 4.9515 0 8.16683 0H36.1668C39.3822 0 42.0002 2.61567 42.0002 5.83333C42.0002 6.47733 41.4775 7 40.8335 7C40.1895 7 39.6668 6.47733 39.6668 5.83333C39.6668 3.90367 38.0965 2.33333 36.1668 2.33333H8.16683C6.23716 2.33333 4.66683 3.90367 4.66683 5.83333V43.1667C4.66683 45.0963 6.23716 46.6667 8.16683 46.6667H10.5002C11.1442 46.6667 11.6668 47.1893 11.6668 47.8333C11.6668 48.4773 11.1442 49 10.5002 49Z" fill="#0CACF8"/>
<path d="M43.1668 39.6666H24.5002C23.8562 39.6666 23.3335 39.1439 23.3335 38.4999C23.3335 37.8559 23.8562 37.3333 24.5002 37.3333H43.1668C43.8108 37.3333 44.3335 37.8559 44.3335 38.4999C44.3335 39.1439 43.8108 39.6666 43.1668 39.6666Z" fill="#6B7181"/>
<path d="M43.1668 49.0001H24.5002C23.8562 49.0001 23.3335 48.4774 23.3335 47.8334C23.3335 47.1894 23.8562 46.6667 24.5002 46.6667H43.1668C43.8108 46.6667 44.3335 47.1894 44.3335 47.8334C44.3335 48.4774 43.8108 49.0001 43.1668 49.0001Z" fill="#6B7181"/>
<path d="M43.1668 30.3333H24.5002C23.8562 30.3333 23.3335 29.8107 23.3335 29.1667C23.3335 28.5227 23.8562 28 24.5002 28H43.1668C43.8108 28 44.3335 28.5227 44.3335 29.1667C44.3335 29.8107 43.8108 30.3333 43.1668 30.3333Z" fill="#6B7181"/>
<path d="M43.1668 21.0001H24.5002C23.8562 21.0001 23.3335 20.4774 23.3335 19.8334C23.3335 19.1894 23.8562 18.6667 24.5002 18.6667H43.1668C43.8108 18.6667 44.3335 19.1894 44.3335 19.8334C44.3335 20.4774 43.8108 21.0001 43.1668 21.0001Z" fill="#6B7181"/>
</g>
<defs>
<clipPath id="clip0">
<rect width="56" height="56" fill="white"/>
</clipPath>
</defs>
</svg>
