<svg width="22" height="22" viewBox="0 0 22 22" fill="none" xmlns="http://www.w3.org/2000/svg">
<path d="M3.20841 20.1662C2.75008 20.1662 2.29175 20.0745 1.83341 19.7995C0.55008 19.0662 0.0917464 17.3245 0.82508 16.0412L8.61675 3.02454C8.89175 2.65788 9.16675 2.29121 9.53341 2.10788C10.1751 1.74121 10.9084 1.64954 11.6417 1.83288C12.3751 2.01621 12.9251 2.47454 13.3834 3.11621L21.0834 16.0412C21.3584 16.4995 21.4501 16.9579 21.4501 17.4162C21.4501 18.1495 21.1751 18.8829 20.6251 19.3412C20.1667 19.8912 19.5251 20.1662 18.7917 20.1662H3.20841ZM10.1751 4.03288L2.47508 16.9579C2.20008 17.4162 2.38341 17.9662 2.84175 18.2412C2.93341 18.3329 3.11675 18.3329 3.20841 18.3329H18.7001C18.9751 18.3329 19.1584 18.2412 19.3417 18.0579C19.5251 17.8745 19.6167 17.6912 19.6167 17.4162C19.6167 17.2329 19.6167 17.1412 19.5251 16.9579L11.8251 4.03288C11.5501 3.57454 11.0001 3.48288 10.5417 3.66621C10.3584 3.75788 10.2667 3.84954 10.1751 4.03288Z" fill="#F9A530"/>
<path d="M11.0001 12.8329C10.4501 12.8329 10.0834 12.4662 10.0834 11.9162V8.24954C10.0834 7.69954 10.4501 7.33288 11.0001 7.33288C11.5501 7.33288 11.9167 7.69954 11.9167 8.24954V11.9162C11.9167 12.4662 11.5501 12.8329 11.0001 12.8329Z" fill="#F9A530"/>
<path d="M11.0001 16.4995C10.7251 16.4995 10.5417 16.4079 10.3584 16.2245C10.1751 16.0412 10.0834 15.8579 10.0834 15.5829C10.0834 15.4912 10.0834 15.3079 10.1751 15.2162C10.2667 15.1245 10.2667 15.0329 10.3584 14.9412C10.4501 14.8495 10.5417 14.7579 10.6334 14.7579C10.8167 14.6662 11.0001 14.6662 11.1834 14.6662C11.2751 14.6662 11.2751 14.6662 11.3667 14.7579C11.4584 14.7579 11.4584 14.7579 11.5501 14.8495C11.5501 14.8495 11.6417 14.9412 11.7334 14.9412C11.8251 15.0329 11.9167 15.1245 11.9167 15.2162C11.9167 15.3079 12.0084 15.4912 12.0084 15.5829C12.0084 15.8579 11.9167 16.0412 11.7334 16.2245C11.4584 16.4079 11.2751 16.4995 11.0001 16.4995Z" fill="#F9A530"/>
</svg>
