<svg width="19" height="19" viewBox="0 0 19 19" fill="none" xmlns="http://www.w3.org/2000/svg">
<path fill-rule="evenodd" clip-rule="evenodd" d="M9.50153 1.72755C8.12701 1.72755 6.80878 2.27358 5.83684 3.24551C4.86491 4.21745 4.31888 5.53568 4.31888 6.9102V11.2291C4.31888 11.8408 4.15664 12.4359 3.85599 12.9566H15.1471C14.8464 12.4359 14.6842 11.8408 14.6842 11.2291V6.9102C14.6842 5.53568 14.1382 4.21745 13.1662 3.24551C12.1943 2.27358 10.8761 1.72755 9.50153 1.72755ZM18.1393 12.9566C17.6811 12.9566 17.2417 12.7746 16.9177 12.4506C16.5937 12.1267 16.4117 11.6873 16.4117 11.2291V6.9102C16.4117 5.0775 15.6837 3.31987 14.3878 2.02395C13.0919 0.728037 11.3342 0 9.50153 0C7.66883 0 5.91119 0.728037 4.61528 2.02395C3.31936 3.31987 2.59133 5.0775 2.59133 6.9102V11.2291C2.59133 11.6873 2.40932 12.1267 2.08534 12.4506C1.76136 12.7746 1.32195 12.9566 0.863776 12.9566C0.386725 12.9566 0 13.3434 0 13.8204C0 14.2975 0.386725 14.6842 0.863776 14.6842H18.1393V12.9566ZM7.57378 16.5283C7.98643 16.289 8.515 16.4294 8.75436 16.8421C8.8303 16.973 8.93928 17.0816 9.07041 17.1572C9.20154 17.2327 9.35021 17.2724 9.50153 17.2724C9.65286 17.2724 9.80153 17.2327 9.93265 17.1572C10.0638 17.0816 10.1728 16.973 10.2487 16.8421C10.4881 16.4294 11.0166 16.289 11.4293 16.5283C11.8419 16.7677 11.9824 17.2963 11.743 17.7089C11.5152 18.1016 11.1883 18.4276 10.7949 18.6542C10.4015 18.8807 9.9555 19 9.50153 19C9.04756 19 8.60155 18.8807 8.20817 18.6542C7.81478 18.4276 7.48782 18.1016 7.26003 17.7089C7.02066 17.2963 7.16113 16.7677 7.57378 16.5283Z" fill="#292F3D"/>
</svg>
