<svg width="22" height="22" viewBox="0 0 22 22" fill="none" xmlns="http://www.w3.org/2000/svg">
<path d="M11 22C8.39545 22 5.86927 21.0734 3.88682 19.3909C3.42134 18.9961 2.9847 18.5584 2.58912 18.09C0.919402 16.1109 0 13.593 0 11C0 8.06175 1.14417 5.29942 3.2218 3.2218C5.29942 1.14417 8.06175 0 11 0C13.9382 0 16.7006 1.14417 18.7782 3.2218C20.8558 5.29942 22 8.06175 22 11C22 13.5931 21.0806 16.1109 19.4111 18.0898C19.0153 18.5584 18.5787 18.9961 18.113 19.391C16.1307 21.0734 13.6046 22 11 22ZM11 1.375C5.69276 1.375 1.375 5.69276 1.375 11C1.375 13.269 2.17933 15.4719 3.63984 17.2031C3.98617 17.6131 4.36863 17.9966 4.77641 18.3425C6.5108 19.8144 8.72098 20.625 11 20.625C13.279 20.625 15.4892 19.8144 17.2235 18.3425C17.6314 17.9966 18.0138 17.6131 18.3604 17.2028C19.8207 15.472 20.625 13.269 20.625 11C20.625 5.69276 16.3072 1.375 11 1.375Z" fill="white"/>
<path d="M11 11C8.72545 11 6.875 9.14955 6.875 6.875C6.875 4.60045 8.72545 2.75 11 2.75C13.2746 2.75 15.125 4.60045 15.125 6.875C15.125 9.14955 13.2746 11 11 11ZM11 4.125C9.48363 4.125 8.25 5.35863 8.25 6.875C8.25 8.39137 9.48363 9.625 11 9.625C12.5164 9.625 13.75 8.39137 13.75 6.875C13.75 5.35863 12.5164 4.125 11 4.125Z" fill="white"/>
<path d="M17.6688 19.5544C17.6134 19.5544 17.5571 19.5476 17.5009 19.5336C17.1327 19.4411 16.9091 19.0676 17.0015 18.6994C17.1249 18.2077 17.1875 17.699 17.1875 17.1875C17.1875 13.8237 14.4527 11.0487 11.0905 11.0004L11 11L10.9095 11.0004C7.54729 11.0487 4.8125 13.8237 4.8125 17.1875C4.8125 17.699 4.87511 18.2077 4.99851 18.6994C5.09094 19.0676 4.86733 19.4411 4.49909 19.5336C4.13084 19.626 3.75732 19.4024 3.66489 19.0341C3.51398 18.433 3.4375 17.8117 3.4375 17.1875C3.4375 15.1861 4.21167 13.2996 5.61739 11.8753C7.02174 10.4524 8.89526 9.65345 10.8928 9.62552C10.8961 9.62547 10.8992 9.62547 10.9025 9.62547L11 9.625L11.0975 9.62543C11.1008 9.62543 11.1039 9.62543 11.1072 9.62547C13.1047 9.65336 14.9783 10.4524 16.3826 11.8752C17.7883 13.2996 18.5625 15.1861 18.5625 17.1875C18.5625 17.8117 18.486 18.433 18.3351 19.0341C18.2568 19.3462 17.9766 19.5543 17.6688 19.5544Z" fill="white"/>
</svg>
