<svg width="20" height="20" viewBox="0 0 20 20" fill="none" xmlns="http://www.w3.org/2000/svg">
<path fill-rule="evenodd" clip-rule="evenodd" d="M9.99992 2.49967C5.85778 2.49967 2.49992 5.85754 2.49992 9.99967C2.49992 14.1418 5.85778 17.4997 9.99992 17.4997C14.1421 17.4997 17.4999 14.1418 17.4999 9.99967C17.4999 5.85754 14.1421 2.49967 9.99992 2.49967ZM0.833252 9.99967C0.833252 4.93706 4.93731 0.833008 9.99992 0.833008C15.0625 0.833008 19.1666 4.93706 19.1666 9.99967C19.1666 15.0623 15.0625 19.1663 9.99992 19.1663C4.93731 19.1663 0.833252 15.0623 0.833252 9.99967Z" fill="#0CACF8"/>
<path fill-rule="evenodd" clip-rule="evenodd" d="M9.99992 4.16634C10.4602 4.16634 10.8333 4.53944 10.8333 4.99967V9.48464L13.7059 10.921C14.1176 11.1268 14.2844 11.6274 14.0786 12.039C13.8728 12.4507 13.3722 12.6175 12.9606 12.4117L9.62724 10.745C9.34492 10.6039 9.16658 10.3153 9.16658 9.99967V4.99967C9.16658 4.53944 9.53968 4.16634 9.99992 4.16634Z" fill="#0CACF8"/>
</svg>
