<svg width="22" height="24" viewBox="0 0 22 24" fill="none" xmlns="http://www.w3.org/2000/svg">
<path fill-rule="evenodd" clip-rule="evenodd" d="M13.75 0.916667C13.75 0.410406 13.3396 0 12.8333 0C12.3271 0 11.9167 0.410406 11.9167 0.916667V1.83333H6.41667V0.916667C6.41667 0.410406 6.00626 0 5.5 0C4.99374 0 4.58333 0.410406 4.58333 0.916667V1.83333H2.75C1.23122 1.83333 0 3.06455 0 4.58333V8.25V17.4167C0 18.9354 1.23122 20.1667 2.75 20.1667H8.88057C8.5997 19.5951 8.39449 18.9796 8.278 18.3333H2.75C2.24374 18.3333 1.83333 17.9229 1.83333 17.4167V9.16667H16.5V10.2103C17.1473 10.3351 17.7628 10.5491 18.3333 10.839V8.25V4.58333C18.3333 3.06455 17.1021 1.83333 15.5833 1.83333H13.75V0.916667ZM16.5 7.33333V4.58333C16.5 4.07707 16.0896 3.66667 15.5833 3.66667H13.75V4.58333C13.75 5.08959 13.3396 5.5 12.8333 5.5C12.3271 5.5 11.9167 5.08959 11.9167 4.58333V3.66667H6.41667V4.58333C6.41667 5.08959 6.00626 5.5 5.5 5.5C4.99374 5.5 4.58333 5.08959 4.58333 4.58333V3.66667H2.75C2.24374 3.66667 1.83333 4.07707 1.83333 4.58333V7.33333H16.5ZM15.1667 21.2835C17.4863 21.2835 19.3667 19.4031 19.3667 17.0835C19.3667 14.7639 17.4863 12.8835 15.1667 12.8835C12.8472 12.8835 10.9667 14.7639 10.9667 17.0835C10.9667 19.4031 12.8472 21.2835 15.1667 21.2835ZM15.1667 23.0835C18.4805 23.0835 21.1667 20.3972 21.1667 17.0835C21.1667 13.7698 18.4805 11.0835 15.1667 11.0835C11.853 11.0835 9.16675 13.7698 9.16675 17.0835C9.16675 20.3972 11.853 23.0835 15.1667 23.0835ZM14.9167 15.0835C14.9167 14.6693 14.581 14.3335 14.1667 14.3335C13.7525 14.3335 13.4167 14.6693 13.4167 15.0835V18.0835C13.4167 18.4977 13.7525 18.8335 14.1667 18.8335H16.6667C17.081 18.8335 17.4167 18.4977 17.4167 18.0835C17.4167 17.6693 17.081 17.3335 16.6667 17.3335H14.9167V15.0835Z" fill="#6E7585"/>
</svg>
