<svg width="15" height="15" viewBox="0 0 15 15" fill="none" xmlns="http://www.w3.org/2000/svg">
<path fill-rule="evenodd" clip-rule="evenodd" d="M2.5 3.125C2.33424 3.125 2.17527 3.19085 2.05806 3.30806C1.94085 3.42527 1.875 3.58424 1.875 3.75V12.5C1.875 12.6658 1.94085 12.8247 2.05806 12.9419C2.17527 13.0592 2.33424 13.125 2.5 13.125H11.25C11.4158 13.125 11.5747 13.0592 11.6919 12.9419C11.8092 12.8247 11.875 12.6658 11.875 12.5V9.1625C11.875 8.81732 12.1548 8.5375 12.5 8.5375C12.8452 8.5375 13.125 8.81732 13.125 9.1625V12.5C13.125 12.9973 12.9275 13.4742 12.5758 13.8258C12.2242 14.1775 11.7473 14.375 11.25 14.375H2.5C2.00272 14.375 1.52581 14.1775 1.17417 13.8258C0.822544 13.4742 0.625 12.9973 0.625 12.5V3.75C0.625 3.25272 0.822544 2.77581 1.17417 2.42417C1.52581 2.07254 2.00272 1.875 2.5 1.875H5.8375C6.18268 1.875 6.4625 2.15482 6.4625 2.5C6.4625 2.84518 6.18268 3.125 5.8375 3.125H2.5Z" fill="#0CACF8"/>
<path fill-rule="evenodd" clip-rule="evenodd" d="M10.8081 0.808058C11.0521 0.563981 11.4479 0.563981 11.6919 0.808058L14.1919 3.30806C14.436 3.55214 14.436 3.94786 14.1919 4.19194L7.94194 10.4419C7.82473 10.5592 7.66576 10.625 7.5 10.625H5C4.65482 10.625 4.375 10.3452 4.375 10V7.5C4.375 7.33424 4.44085 7.17527 4.55806 7.05806L10.8081 0.808058ZM5.625 7.75888V9.375H7.24112L12.8661 3.75L11.25 2.13388L5.625 7.75888Z" fill="#0CACF8"/>
</svg>
