<svg width="22" height="22" viewBox="0 0 22 22" fill="none" xmlns="http://www.w3.org/2000/svg">
<path fill-rule="evenodd" clip-rule="evenodd" d="M1.96235 11C2.06253 11.1731 2.19535 11.3938 2.35988 11.6485C2.78248 12.3029 3.40832 13.173 4.22083 14.0397C5.86256 15.7909 8.15788 17.4167 11 17.4167C13.8421 17.4167 16.1374 15.7909 17.7792 14.0397C18.5917 13.173 19.2175 12.3029 19.6401 11.6485C19.8047 11.3938 19.9375 11.1731 20.0377 11C19.9375 10.8269 19.8047 10.6062 19.6401 10.3515C19.2175 9.69713 18.5917 8.82695 17.7792 7.96028C16.1374 6.2091 13.8421 4.58333 11 4.58333C8.15788 4.58333 5.86256 6.2091 4.22083 7.96028C3.40832 8.82695 2.78248 9.69713 2.35988 10.3515C2.19535 10.6062 2.06253 10.8269 1.96235 11ZM21.0833 11C21.9032 10.5901 21.9031 10.5897 21.9029 10.5894L21.9014 10.5865L21.8983 10.5802L21.8879 10.5598C21.8791 10.5428 21.8668 10.519 21.8508 10.4889C21.8189 10.4286 21.7726 10.343 21.7122 10.2355C21.5914 10.0207 21.4135 9.71806 21.1802 9.35685C20.7148 8.6362 20.0229 7.67305 19.1167 6.70639C17.3209 4.7909 14.5745 2.75 11 2.75C7.42545 2.75 4.67911 4.7909 2.88334 6.70639C1.9771 7.67305 1.28523 8.6362 0.819808 9.35685C0.586529 9.71806 0.408643 10.0207 0.287807 10.2355C0.227355 10.343 0.181078 10.4286 0.149191 10.4889C0.133244 10.519 0.120886 10.5428 0.112143 10.5598L0.101741 10.5802L0.0985774 10.5865L0.0975059 10.5886C0.0973375 10.5889 0.0967751 10.5901 0.916667 11L0.0967751 10.5901C-0.0322584 10.8481 -0.0322584 11.1519 0.0967751 11.4099L0.916667 11C0.0967751 11.4099 0.0966066 11.4096 0.0967751 11.4099L0.0985774 11.4135L0.101741 11.4198L0.112143 11.4402C0.120886 11.4572 0.133244 11.481 0.149191 11.5111C0.181078 11.5714 0.227355 11.657 0.287807 11.7645C0.408643 11.9793 0.586529 12.2819 0.819808 12.6431C1.28523 13.3638 1.9771 14.327 2.88334 15.2936C4.67911 17.2091 7.42545 19.25 11 19.25C14.5745 19.25 17.3209 17.2091 19.1167 15.2936C20.0229 14.327 20.7148 13.3638 21.1802 12.6431C21.4135 12.2819 21.5914 11.9793 21.7122 11.7645C21.7726 11.657 21.8189 11.5714 21.8508 11.5111C21.8668 11.481 21.8791 11.4572 21.8879 11.4402L21.8983 11.4198L21.9014 11.4135L21.9025 11.4114C21.9027 11.4111 21.9032 11.4099 21.0833 11ZM21.0833 11L21.9032 11.4099C22.0323 11.1519 22.0319 10.8475 21.9029 10.5894L21.0833 11Z" fill="#6E7585"/>
<path fill-rule="evenodd" clip-rule="evenodd" d="M10.9999 9.16659C9.9874 9.16659 9.16659 9.9874 9.16659 10.9999C9.16659 12.0124 9.9874 12.8333 10.9999 12.8333C12.0124 12.8333 12.8333 12.0124 12.8333 10.9999C12.8333 9.9874 12.0124 9.16659 10.9999 9.16659ZM7.33325 10.9999C7.33325 8.97487 8.97487 7.33325 10.9999 7.33325C13.025 7.33325 14.6666 8.97487 14.6666 10.9999C14.6666 13.025 13.025 14.6666 10.9999 14.6666C8.97487 14.6666 7.33325 13.025 7.33325 10.9999Z" fill="#6E7585"/>
</svg>
