<svg width="22" height="22" viewBox="0 0 22 22" fill="none" xmlns="http://www.w3.org/2000/svg">
<path fill-rule="evenodd" clip-rule="evenodd" d="M11.0003 2.74984C6.44398 2.74984 2.75033 6.44349 2.75033 10.9998C2.75033 15.5562 6.44398 19.2498 11.0003 19.2498C15.5567 19.2498 19.2503 15.5562 19.2503 10.9998C19.2503 6.44349 15.5567 2.74984 11.0003 2.74984ZM0.916992 10.9998C0.916992 5.43097 5.43145 0.916504 11.0003 0.916504C16.5692 0.916504 21.0837 5.43097 21.0837 10.9998C21.0837 16.5687 16.5692 21.0832 11.0003 21.0832C5.43145 21.0832 0.916992 16.5687 0.916992 10.9998Z" fill="#0CACF8"/>
<path fill-rule="evenodd" clip-rule="evenodd" d="M0.916992 10.9998C0.916992 10.4936 1.3274 10.0832 1.83366 10.0832H20.167C20.6733 10.0832 21.0837 10.4936 21.0837 10.9998C21.0837 11.5061 20.6733 11.9165 20.167 11.9165H1.83366C1.3274 11.9165 0.916992 11.5061 0.916992 10.9998Z" fill="#0CACF8"/>
<path fill-rule="evenodd" clip-rule="evenodd" d="M8.25054 10.9998C8.31336 13.8184 9.28272 16.5321 11.0003 18.7449C12.7179 16.5321 13.6873 13.8184 13.7501 10.9998C13.6873 8.18123 12.7179 5.46761 11.0003 3.25473C9.28273 5.46761 8.31336 8.18123 8.25054 10.9998ZM11.0003 1.83317L10.3235 1.21495C7.88081 3.88917 6.49263 7.35962 6.41719 10.9807C6.41693 10.9935 6.41693 11.0062 6.41719 11.0189C6.49263 14.6401 7.88081 18.1105 10.3235 20.7847C10.4972 20.9749 10.7428 21.0832 11.0003 21.0832C11.2578 21.0832 11.5035 20.9749 11.6771 20.7847C14.1198 18.1105 15.508 14.6401 15.5835 11.0189C15.5837 11.0062 15.5837 10.9935 15.5835 10.9807C15.508 7.35962 14.1198 3.88917 11.6771 1.21495L11.0003 1.83317Z" fill="#0CACF8"/>
</svg>
