<svg width="23" height="23" viewBox="0 0 23 23" fill="none" xmlns="http://www.w3.org/2000/svg">
<g clip-path="url(#clip0)">
<path d="M22.9172 18.0516L21.5814 14.1639C22.2253 12.8476 22.5655 11.3837 22.5678 9.91072C22.5718 7.34959 21.5809 4.92798 19.7776 3.09202C17.974 1.2557 15.5706 0.221997 13.0101 0.181432C10.355 0.139475 7.85927 1.14941 5.98301 3.02562C4.17382 4.83476 3.17036 7.21981 3.1386 9.7685C1.35547 11.111 0.302989 13.2042 0.306448 15.4399C0.30811 16.4861 0.543591 17.5261 0.989801 18.4666L0.0696644 21.1443C-0.0885058 21.6046 0.0270335 22.1044 0.371226 22.4486C0.613445 22.6908 0.932795 22.8198 1.26122 22.8198C1.3994 22.8198 1.5392 22.797 1.67553 22.7501L4.35329 21.83C5.29373 22.2762 6.33372 22.5117 7.37995 22.5134C7.38372 22.5134 7.38732 22.5134 7.39109 22.5134C9.6601 22.5133 11.7692 21.4337 13.1068 19.6068C14.4988 19.5702 15.8761 19.2332 17.1212 18.6241L21.0089 19.96C21.1709 20.0156 21.337 20.0428 21.5012 20.0428C21.8915 20.0428 22.271 19.8895 22.5589 19.6016C22.9679 19.1925 23.1052 18.5986 22.9172 18.0516ZM7.391 21.1443C7.38808 21.1443 7.38498 21.1443 7.38206 21.1443C6.45604 21.1429 5.53644 20.9146 4.72286 20.4842C4.55557 20.3957 4.35917 20.3804 4.18029 20.4419L1.43453 21.3854L2.37802 18.6396C2.43948 18.4607 2.4242 18.2643 2.33571 18.0971C1.90527 17.2834 1.67697 16.3639 1.67553 15.4378C1.67324 13.9483 2.25269 12.5364 3.266 11.4792C3.59698 13.4969 4.55863 15.3563 6.04923 16.8203C7.52882 18.2736 9.38868 19.1989 11.3954 19.5014C10.3358 20.5458 8.90748 21.1443 7.391 21.1443ZM21.5907 18.6335C21.5518 18.6724 21.5056 18.683 21.4537 18.6652L17.2918 17.235C17.2195 17.2102 17.1443 17.1979 17.0693 17.1979C16.9589 17.1979 16.8488 17.2246 16.7492 17.2773C15.5609 17.906 14.2181 18.2394 12.8659 18.2415C12.8614 18.2415 12.8574 18.2415 12.8529 18.2415C8.32196 18.2415 4.57938 14.5608 4.5076 10.0309C4.47143 7.74957 5.33924 5.60549 6.95108 3.99365C8.56293 2.3818 10.7074 1.51431 12.9884 1.55025C17.5227 1.62217 21.2058 5.37167 21.1988 9.90856C21.1967 11.2608 20.8633 12.6037 20.2347 13.7919C20.1462 13.9591 20.131 14.1555 20.1924 14.3345L21.6225 18.4964C21.6403 18.5485 21.6296 18.5946 21.5907 18.6335Z" fill="white"/>
<path d="M16.9307 6.26709H8.77468C8.39662 6.26709 8.09016 6.57359 8.09016 6.95161C8.09016 7.32967 8.39667 7.63613 8.77468 7.63613H16.9307C17.3088 7.63613 17.6152 7.32963 17.6152 6.95161C17.6152 6.57359 17.3088 6.26709 16.9307 6.26709Z" fill="white"/>
<path d="M16.9307 9.0824H8.77468C8.39662 9.0824 8.09016 9.3889 8.09016 9.76692C8.09016 10.1449 8.39667 10.4514 8.77468 10.4514H16.9307C17.3088 10.4514 17.6152 10.1449 17.6152 9.76692C17.6152 9.3889 17.3088 9.0824 16.9307 9.0824Z" fill="white"/>
<path d="M13.7912 11.8977H8.77462C8.39656 11.8977 8.0901 12.2042 8.0901 12.5822C8.0901 12.9603 8.3966 13.2667 8.77462 13.2667H13.7911C14.1692 13.2667 14.4756 12.9602 14.4756 12.5822C14.4756 12.2042 14.1692 11.8977 13.7912 11.8977Z" fill="white"/>
</g>
<defs>
<clipPath id="clip0">
<rect width="23" height="23" fill="white"/>
</clipPath>
</defs>
</svg>
