<svg width="22" height="22" viewBox="0 0 22 22" fill="none" xmlns="http://www.w3.org/2000/svg">
<path fill-rule="evenodd" clip-rule="evenodd" d="M4.5835 3.66634C4.34038 3.66634 4.10722 3.76292 3.93531 3.93483C3.76341 4.10673 3.66683 4.33989 3.66683 4.58301V17.4163C3.66683 17.6595 3.76341 17.8926 3.93531 18.0645C4.10722 18.2364 4.34038 18.333 4.5835 18.333H8.25016C8.75642 18.333 9.16683 18.7434 9.16683 19.2497C9.16683 19.7559 8.75642 20.1663 8.25016 20.1663H4.5835C3.85415 20.1663 3.15468 19.8766 2.63895 19.3609C2.12323 18.8452 1.8335 18.1457 1.8335 17.4163V4.58301C1.8335 3.85366 2.12323 3.15419 2.63895 2.63846C3.15468 2.12274 3.85415 1.83301 4.5835 1.83301H8.25016C8.75642 1.83301 9.16683 2.24341 9.16683 2.74967C9.16683 3.25594 8.75642 3.66634 8.25016 3.66634H4.5835Z" fill="#6E7585"/>
<path fill-rule="evenodd" clip-rule="evenodd" d="M14.0185 5.76849C14.3765 5.4105 14.9569 5.4105 15.3148 5.76849L19.8982 10.3518C20.2562 10.7098 20.2562 11.2902 19.8982 11.6482L15.3148 16.2315C14.9569 16.5895 14.3765 16.5895 14.0185 16.2315C13.6605 15.8735 13.6605 15.2931 14.0185 14.9352L17.9536 11L14.0185 7.06485C13.6605 6.70687 13.6605 6.12647 14.0185 5.76849Z" fill="#6E7585"/>
<path fill-rule="evenodd" clip-rule="evenodd" d="M7.3335 10.9997C7.3335 10.4934 7.7439 10.083 8.25016 10.083H19.2502C19.7564 10.083 20.1668 10.4934 20.1668 10.9997C20.1668 11.5059 19.7564 11.9163 19.2502 11.9163H8.25016C7.7439 11.9163 7.3335 11.5059 7.3335 10.9997Z" fill="#6E7585"/>
</svg>
