<svg width="56" height="56" viewBox="0 0 56 56" fill="none" xmlns="http://www.w3.org/2000/svg">
<g clip-path="url(#clip0)">
<path d="M27.7529 55.9999C27.4472 55.9999 27.1486 55.8786 26.9269 55.6592C26.6516 55.3839 26.5302 54.9872 26.6072 54.6069L28.2569 46.3586C28.3036 46.1299 28.4109 45.9222 28.5766 45.7612L46.7252 27.6126C48.0879 26.2499 50.3116 26.2499 51.6742 27.6126L54.9736 30.9119C56.3386 32.2769 56.3386 34.4959 54.9736 35.8609L36.8249 54.0096C36.6639 54.1729 36.4562 54.2826 36.2276 54.3292L27.9792 55.9789C27.9046 55.9929 27.8276 55.9999 27.7529 55.9999ZM30.4782 47.1589L29.2416 53.3446L35.4272 52.1079L53.3262 34.2089C53.7812 33.7539 53.7812 33.0142 53.3262 32.5592L50.0269 29.2599C49.5719 28.8049 48.8322 28.8049 48.3772 29.2599L30.4782 47.1589ZM36.0012 53.1836H36.0246H36.0012Z" fill="#0CACF8"/>
<path d="M22.1667 49H5.83333C2.61567 49 0 46.3843 0 43.1667V12.8333C0 9.61567 2.61567 7 5.83333 7H10.5C11.144 7 11.6667 7.52267 11.6667 8.16667C11.6667 8.81067 11.144 9.33333 10.5 9.33333H5.83333C3.90367 9.33333 2.33333 10.9037 2.33333 12.8333V43.1667C2.33333 45.0963 3.90367 46.6667 5.83333 46.6667H22.1667C22.8107 46.6667 23.3333 47.1893 23.3333 47.8333C23.3333 48.4773 22.8107 49 22.1667 49Z" fill="#6B7181"/>
<path d="M38.5 28C37.856 28 37.3333 27.4773 37.3333 26.8333V12.8333C37.3333 10.9037 35.763 9.33333 33.8333 9.33333H29.1667C28.5227 9.33333 28 8.81067 28 8.16667C28 7.52267 28.5227 7 29.1667 7H33.8333C37.051 7 39.6667 9.61567 39.6667 12.8333V26.8333C39.6667 27.4773 39.144 28 38.5 28Z" fill="#6B7181"/>
<path d="M26.8335 14H12.8335C10.9038 14 9.3335 12.4297 9.3335 10.5V5.83333C9.3335 5.18933 9.85616 4.66667 10.5002 4.66667H14.1168C14.6582 2.00667 17.0172 0 19.8335 0C22.6498 0 25.0088 2.00667 25.5502 4.66667H29.1668C29.8108 4.66667 30.3335 5.18933 30.3335 5.83333V10.5C30.3335 12.4297 28.7632 14 26.8335 14ZM11.6668 7V10.5C11.6668 11.1417 12.1918 11.6667 12.8335 11.6667H26.8335C27.4752 11.6667 28.0002 11.1417 28.0002 10.5V7H24.5002C23.8562 7 23.3335 6.47733 23.3335 5.83333C23.3335 3.90367 21.7632 2.33333 19.8335 2.33333C17.9038 2.33333 16.3335 3.90367 16.3335 5.83333C16.3335 6.47733 15.8108 7 15.1668 7H11.6668Z" fill="#6B7181"/>
<path d="M31.5 20.9998H8.16667C7.52267 20.9998 7 20.4772 7 19.8332C7 19.1892 7.52267 18.6665 8.16667 18.6665H31.5C32.144 18.6665 32.6667 19.1892 32.6667 19.8332C32.6667 20.4772 32.144 20.9998 31.5 20.9998Z" fill="#6B7181"/>
<path d="M31.5 27.9998H8.16667C7.52267 27.9998 7 27.4772 7 26.8332C7 26.1892 7.52267 25.6665 8.16667 25.6665H31.5C32.144 25.6665 32.6667 26.1892 32.6667 26.8332C32.6667 27.4772 32.144 27.9998 31.5 27.9998Z" fill="#6B7181"/>
<path d="M31.5 34.9998H8.16667C7.52267 34.9998 7 34.4772 7 33.8332C7 33.1892 7.52267 32.6665 8.16667 32.6665H31.5C32.144 32.6665 32.6667 33.1892 32.6667 33.8332C32.6667 34.4772 32.144 34.9998 31.5 34.9998Z" fill="#6B7181"/>
</g>
<defs>
<clipPath id="clip0">
<rect width="56" height="56" fill="white"/>
</clipPath>
</defs>
</svg>
