<svg width="30" height="34" viewBox="0 0 30 34" fill="none" xmlns="http://www.w3.org/2000/svg">
<path fill-rule="evenodd" clip-rule="evenodd" d="M5 3.33333C4.55797 3.33333 4.13405 3.50893 3.82149 3.82149C3.50893 4.13405 3.33333 4.55797 3.33333 5V28.3333C3.33333 28.7754 3.50893 29.1993 3.82149 29.5118C4.13405 29.8244 4.55797 30 5 30H25C25.442 30 25.8659 29.8244 26.1785 29.5118C26.4911 29.1993 26.6667 28.7754 26.6667 28.3333V5C26.6667 4.55797 26.4911 4.13405 26.1785 3.82149C25.8659 3.50893 25.442 3.33333 25 3.33333H21.6667C20.7462 3.33333 20 2.58714 20 1.66667C20 0.746192 20.7462 0 21.6667 0H25C26.3261 0 27.5979 0.526784 28.5355 1.46447C29.4732 2.40215 30 3.67392 30 5V28.3333C30 29.6594 29.4732 30.9312 28.5355 31.8689C27.5979 32.8065 26.3261 33.3333 25 33.3333H5C3.67392 33.3333 2.40215 32.8065 1.46447 31.8689C0.526784 30.9312 0 29.6594 0 28.3333V5C0 3.67392 0.526784 2.40215 1.46447 1.46447C2.40215 0.526784 3.67392 0 5 0H8.33333C9.25381 0 10 0.746192 10 1.66667C10 2.58714 9.25381 3.33333 8.33333 3.33333H5Z" fill="#979CA7"/>
</svg>
