<svg width="22" height="22" viewBox="0 0 22 22" fill="none" xmlns="http://www.w3.org/2000/svg">
<g clip-path="url(#clip0)">
<path d="M8.9375 19.25H2.52089C1.13028 19.25 0 18.1197 0 16.7291V5.27089C0 3.88028 1.13028 2.75 2.52089 2.75H4.35411C4.73361 2.75 5.04161 3.058 5.04161 3.4375C5.04161 3.817 4.73361 4.125 4.35411 4.125H2.52089C1.88928 4.125 1.375 4.63928 1.375 5.27089V16.7291C1.375 17.3607 1.88928 17.875 2.52089 17.875H8.9375C9.317 17.875 9.625 18.183 9.625 18.5625C9.625 18.942 9.317 19.25 8.9375 19.25Z" fill="white"/>
<path d="M14.8959 7.79161C14.5164 7.79161 14.2084 7.48361 14.2084 7.10411V5.27089C14.2084 4.63928 13.6941 4.125 13.0625 4.125H11.2291C10.8496 4.125 10.5416 3.817 10.5416 3.4375C10.5416 3.058 10.8496 2.75 11.2291 2.75H13.0625C14.4531 2.75 15.5834 3.88028 15.5834 5.27089V7.10411C15.5834 7.48361 15.2754 7.79161 14.8959 7.79161Z" fill="white"/>
<path d="M10.3125 5.95839H5.27086C4.38614 5.95839 3.66658 5.23883 3.66658 4.35411V2.52089C3.66658 2.14139 3.97458 1.83339 4.35408 1.83339H5.3662C5.66597 0.776459 6.64032 0 7.79158 0C8.94301 0 9.91736 0.776459 10.2171 1.83339H11.2291C11.6086 1.83339 11.9166 2.14139 11.9166 2.52089V4.35411C11.9166 5.23883 11.197 5.95839 10.3125 5.95839ZM5.04158 3.20839V4.35411C5.04158 4.48067 5.1443 4.58339 5.27086 4.58339H10.3125C10.439 4.58339 10.5416 4.48067 10.5416 4.35411V3.20839H9.62497C9.24547 3.20839 8.93747 2.90039 8.93747 2.52089C8.93747 1.88928 8.42319 1.375 7.79158 1.375C7.15997 1.375 6.64586 1.88928 6.64586 2.52089C6.64586 2.90039 6.33786 3.20839 5.95836 3.20839H5.04158Z" fill="white"/>
<path d="M20.3959 22H12.6041C11.7196 22 11 21.2805 11 20.3959V10.7709C11 9.88618 11.7196 9.16663 12.6041 9.16663H17.8027C18.4754 9.16663 19.1088 9.4288 19.5845 9.90549L21.2611 11.5821C21.7378 12.0588 22 12.6912 22 13.3641V20.3959C22 21.2805 21.2804 22 20.3959 22ZM12.6041 10.5416C12.4777 10.5416 12.375 10.6443 12.375 10.7709V20.3959C12.375 20.5223 12.4777 20.625 12.6041 20.625H20.3959C20.5223 20.625 20.625 20.5223 20.625 20.3959V13.3641C20.625 13.0625 20.5031 12.7673 20.2895 12.5538L18.6129 10.8772C18.3994 10.6637 18.1041 10.5416 17.8027 10.5416H12.6041Z" fill="white"/>
<path d="M18.4478 15.5834H14.3228C13.9433 15.5834 13.6353 15.2754 13.6353 14.8959C13.6353 14.5164 13.9433 14.2084 14.3228 14.2084H18.4478C18.8273 14.2084 19.1353 14.5164 19.1353 14.8959C19.1353 15.2754 18.8273 15.5834 18.4478 15.5834Z" fill="white"/>
<path d="M18.4478 18.3334H14.3228C13.9433 18.3334 13.6353 18.0254 13.6353 17.6459C13.6353 17.2664 13.9433 16.9584 14.3228 16.9584H18.4478C18.8273 16.9584 19.1353 17.2664 19.1353 17.6459C19.1353 18.0254 18.8273 18.3334 18.4478 18.3334Z" fill="white"/>
</g>
<defs>
<clipPath id="clip0">
<rect width="22" height="22" fill="white"/>
</clipPath>
</defs>
</svg>
