<svg width="21" height="21" viewBox="0 0 21 21" fill="none" xmlns="http://www.w3.org/2000/svg">
<path fill-rule="evenodd" clip-rule="evenodd" d="M10.5 2.625C6.15076 2.625 2.625 6.15076 2.625 10.5C2.625 14.8492 6.15076 18.375 10.5 18.375C14.8492 18.375 18.375 14.8492 18.375 10.5C18.375 6.15076 14.8492 2.625 10.5 2.625ZM0.875 10.5C0.875 5.18426 5.18426 0.875 10.5 0.875C15.8157 0.875 20.125 5.18426 20.125 10.5C20.125 15.8157 15.8157 20.125 10.5 20.125C5.18426 20.125 0.875 15.8157 0.875 10.5Z" fill="white"/>
<path fill-rule="evenodd" clip-rule="evenodd" d="M10.5 6.125C10.9832 6.125 11.375 6.51675 11.375 7V14C11.375 14.4832 10.9832 14.875 10.5 14.875C10.0168 14.875 9.625 14.4832 9.625 14V7C9.625 6.51675 10.0168 6.125 10.5 6.125Z" fill="white"/>
<path fill-rule="evenodd" clip-rule="evenodd" d="M6.125 10.5C6.125 10.0168 6.51675 9.625 7 9.625H14C14.4832 9.625 14.875 10.0168 14.875 10.5C14.875 10.9832 14.4832 11.375 14 11.375H7C6.51675 11.375 6.125 10.9832 6.125 10.5Z" fill="white"/>
</svg>
