<svg width="18" height="20" viewBox="0 0 18 20" fill="none" xmlns="http://www.w3.org/2000/svg">
<path fill-rule="evenodd" clip-rule="evenodd" d="M12.5777 0.244078C12.9032 -0.0813592 13.4308 -0.0813592 13.7562 0.244078L17.0896 3.57741C17.415 3.90285 17.415 4.43049 17.0896 4.75592L13.7562 8.08926C13.4308 8.41469 12.9032 8.41469 12.5777 8.08926C12.2523 7.76382 12.2523 7.23618 12.5777 6.91074L15.3218 4.16667L12.5777 1.42259C12.2523 1.09715 12.2523 0.569515 12.5777 0.244078Z" fill="#0CACF8"/>
<path fill-rule="evenodd" clip-rule="evenodd" d="M4.83366 5C4.17062 5 3.53473 5.26339 3.06589 5.73223C2.59705 6.20107 2.33366 6.83696 2.33366 7.5V9.16667C2.33366 9.6269 1.96056 10 1.50033 10C1.04009 10 0.666992 9.6269 0.666992 9.16667V7.5C0.666992 6.39493 1.10598 5.33512 1.88738 4.55372C2.66878 3.77232 3.72859 3.33333 4.83366 3.33333H16.5003C16.9606 3.33333 17.3337 3.70643 17.3337 4.16667C17.3337 4.6269 16.9606 5 16.5003 5H4.83366Z" fill="#0CACF8"/>
<path fill-rule="evenodd" clip-rule="evenodd" d="M5.42291 11.9107C5.74835 12.2362 5.74835 12.7638 5.42291 13.0893L2.67884 15.8333L5.42291 18.5774C5.74835 18.9028 5.74835 19.4305 5.42291 19.7559C5.09748 20.0814 4.56984 20.0814 4.2444 19.7559L0.91107 16.4226C0.585633 16.0972 0.585633 15.5695 0.91107 15.2441L4.2444 11.9107C4.56984 11.5853 5.09748 11.5853 5.42291 11.9107Z" fill="#0CACF8"/>
<path fill-rule="evenodd" clip-rule="evenodd" d="M16.5003 10C16.9606 10 17.3337 10.3731 17.3337 10.8333V12.5C17.3337 13.6051 16.8947 14.6649 16.1133 15.4463C15.3319 16.2277 14.2721 16.6667 13.167 16.6667H1.50033C1.04009 16.6667 0.666992 16.2936 0.666992 15.8333C0.666992 15.3731 1.04009 15 1.50033 15H13.167C13.83 15 14.4659 14.7366 14.9348 14.2678C15.4036 13.7989 15.667 13.163 15.667 12.5V10.8333C15.667 10.3731 16.0401 10 16.5003 10Z" fill="#0CACF8"/>
</svg>
