<svg width="18" height="18" viewBox="0 0 18 18" fill="none" xmlns="http://www.w3.org/2000/svg">
<g clip-path="url(#clip0)">
<path fill-rule="evenodd" clip-rule="evenodd" d="M17.25 2.25C17.6642 2.25 18 2.58579 18 3V7.5C18 7.91421 17.6642 8.25 17.25 8.25H12.75C12.3358 8.25 12 7.91421 12 7.5C12 7.08579 12.3358 6.75 12.75 6.75H16.5V3C16.5 2.58579 16.8358 2.25 17.25 2.25Z" fill="#6E7585"/>
<path fill-rule="evenodd" clip-rule="evenodd" d="M2.26408e-06 10.5C2.26408e-06 10.0858 0.335789 9.75 0.750002 9.75H5.25C5.66422 9.75 6 10.0858 6 10.5C6 10.9142 5.66422 11.25 5.25 11.25H1.5V15C1.5 15.4142 1.16422 15.75 0.750002 15.75C0.335789 15.75 2.26408e-06 15.4142 2.26408e-06 15V10.5Z" fill="#6E7585"/>
<path fill-rule="evenodd" clip-rule="evenodd" d="M10.663 3.23627C9.68937 2.95465 8.66028 2.92426 7.67173 3.14793C6.68318 3.3716 5.76741 3.84205 5.00985 4.51537C4.25229 5.18869 3.67765 6.04295 3.33954 6.99842C3.20136 7.38891 2.77279 7.59344 2.3823 7.45526C1.99182 7.31708 1.78728 6.88851 1.92547 6.49803C2.3481 5.30368 3.06641 4.23586 4.01335 3.39421C4.9603 2.55256 6.10502 1.9645 7.3407 1.68491C8.57639 1.40532 9.86276 1.44331 11.0798 1.79534C12.293 2.14625 13.3978 2.7978 14.2919 3.68949L17.7636 6.95166C18.0654 7.2353 18.0802 7.70995 17.7966 8.01181C17.5129 8.31367 17.0383 8.32843 16.7364 8.04479L13.2564 4.77479C13.2507 4.76942 13.2451 4.76397 13.2395 4.75842C12.523 4.04157 11.6366 3.51789 10.663 3.23627ZM0.203437 9.98464C0.487081 9.68278 0.961725 9.66802 1.26358 9.95166L4.74358 13.2217C4.7493 13.227 4.75492 13.2325 4.76046 13.238C5.47696 13.9549 6.36338 14.4786 7.337 14.7602C8.31063 15.0418 9.33973 15.0722 10.3283 14.8485C11.3168 14.6249 12.2326 14.1544 12.9902 13.4811C13.7477 12.8078 14.3224 11.9535 14.6605 10.998C14.7986 10.6075 15.2272 10.403 15.6177 10.5412C16.0082 10.6794 16.2127 11.1079 16.0745 11.4984C15.6519 12.6928 14.9336 13.7606 13.9867 14.6022C13.0397 15.4439 11.895 16.032 10.6593 16.3115C9.42362 16.5911 8.13724 16.5531 6.92021 16.2011C5.70705 15.8502 4.6022 15.1987 3.70808 14.307L0.23642 11.0448C-0.0654396 10.7611 -0.0802062 10.2865 0.203437 9.98464Z" fill="#6E7585"/>
</g>
<defs>
<clipPath id="clip0">
<rect width="18" height="18" fill="white"/>
</clipPath>
</defs>
</svg>
