<svg width="22" height="22" viewBox="0 0 22 22" fill="none" xmlns="http://www.w3.org/2000/svg">
<g clip-path="url(#clip0)">
<path fill-rule="evenodd" clip-rule="evenodd" d="M0.916667 2.75C1.42293 2.75 1.83333 3.16041 1.83333 3.66667V8.25H6.41667C6.92293 8.25 7.33333 8.66041 7.33333 9.16667C7.33333 9.67293 6.92293 10.0833 6.41667 10.0833H0.916667C0.410406 10.0833 0 9.67293 0 9.16667V3.66667C0 3.16041 0.410406 2.75 0.916667 2.75Z" fill="#6E7585"/>
<path fill-rule="evenodd" clip-rule="evenodd" d="M14.667 12.8332C14.667 12.3269 15.0774 11.9165 15.5837 11.9165H21.0837C21.5899 11.9165 22.0003 12.3269 22.0003 12.8332V18.3332C22.0003 18.8394 21.5899 19.2498 21.0837 19.2498C20.5774 19.2498 20.167 18.8394 20.167 18.3332V13.7498H15.5837C15.0774 13.7498 14.667 13.3394 14.667 12.8332Z" fill="#6E7585"/>
<path fill-rule="evenodd" clip-rule="evenodd" d="M8.45804 2.19642C9.94552 1.76616 11.5178 1.71973 13.028 2.06145C14.5383 2.40317 15.9374 3.12191 17.0948 4.1506C18.2522 5.17928 19.1301 6.48439 19.6467 7.94415C19.8155 8.42141 19.5656 8.94522 19.0883 9.1141C18.611 9.28299 18.0872 9.033 17.9183 8.55574C17.5051 7.38794 16.8028 6.34385 15.8769 5.5209C14.951 4.69795 13.8317 4.12296 12.6234 3.84958C11.4152 3.57621 10.1574 3.61336 8.96745 3.95756C7.77746 4.30176 6.69407 4.94181 5.81835 5.81797C5.81157 5.82474 5.8047 5.83141 5.79771 5.83797L1.54438 9.83464C1.17544 10.1813 0.595321 10.1633 0.248646 9.79433C-0.0980298 9.42539 -0.0799817 8.84527 0.288958 8.49859L4.53209 4.51151C5.62491 3.42165 6.97528 2.62531 8.45804 2.19642ZM21.7514 12.2056C22.098 12.5745 22.08 13.1546 21.711 13.5013L17.4679 17.4884C16.3751 18.5782 15.0247 19.3746 13.542 19.8035C12.0545 20.2337 10.4823 20.2802 8.97197 19.9384C7.46169 19.5967 6.06259 18.878 4.90521 17.8493C3.74783 16.8206 2.86991 15.5155 2.35335 14.0557C2.18446 13.5785 2.43445 13.0547 2.91171 12.8858C3.38897 12.7169 3.91277 12.9669 4.08166 13.4441C4.49491 14.612 5.19725 15.656 6.12315 16.479C7.04905 17.3019 8.16833 17.8769 9.37656 18.1503C10.5848 18.4237 11.8426 18.3865 13.0326 18.0423C14.2225 17.6981 15.3059 17.0581 16.1817 16.1819C16.1857 16.1779 16.1898 16.1738 16.194 16.1698C16.1967 16.1672 16.1995 16.1645 16.2023 16.1619L20.4556 12.1653C20.8246 11.8186 21.4047 11.8366 21.7514 12.2056Z" fill="#6E7585"/>
</g>
<defs>
<clipPath id="clip0">
<rect width="22" height="22" fill="white"/>
</clipPath>
</defs>
</svg>
