<svg width="15" height="15" viewBox="0 0 15 15" fill="none" xmlns="http://www.w3.org/2000/svg">
<path d="M11.0078 9.68207C11.7459 8.67409 12.1874 7.43596 12.1874 6.09374C12.1874 2.73377 9.45368 0 6.09371 0C2.73374 0 0 2.73377 0 6.09374C0 9.45371 2.73377 12.1875 6.09374 12.1875C7.43596 12.1875 8.6742 11.7459 9.68219 11.0078L13.6743 14.9999L15 13.6742C15 13.6742 11.0078 9.68207 11.0078 9.68207ZM6.09374 10.3125C3.76738 10.3125 1.87501 8.42009 1.87501 6.09374C1.87501 3.76738 3.76738 1.87501 6.09374 1.87501C8.42009 1.87501 10.3125 3.76738 10.3125 6.09374C10.3125 8.42009 8.42006 10.3125 6.09374 10.3125Z" fill="#0CACF8"/>
</svg>
