<svg width="22" height="23" viewBox="0 0 22 23" fill="none" xmlns="http://www.w3.org/2000/svg">
<g clip-path="url(#clip0)">
<path d="M11 22.2238C9.67317 22.2238 8.59375 21.1443 8.59375 19.8175V19.1172C8.08401 18.9623 7.59125 18.758 7.12027 18.5065L6.62466 19.0021C6.17031 19.4564 5.56613 19.7066 4.92336 19.7066C4.28029 19.7066 3.67593 19.4564 3.22162 19.0021C2.28366 18.0636 2.28375 16.537 3.22167 15.5991L3.71727 15.1035C3.46577 14.6326 3.26159 14.1397 3.1066 13.63H2.40625C1.76374 13.63 1.15955 13.3797 0.704945 12.9251C0.250336 12.4705 0 11.8662 0 11.2238C0 9.89697 1.07942 8.8175 2.40625 8.8175H3.1066C3.26154 8.30777 3.46577 7.815 3.71727 7.34402L3.22167 6.84842C2.76732 6.39407 2.51711 5.78988 2.51711 5.14711C2.51711 4.50409 2.76732 3.89973 3.22162 3.44538C4.16023 2.50733 5.68674 2.50746 6.62466 3.44538L7.12027 3.94098C7.59125 3.68949 8.08401 3.4853 8.59375 3.33031V2.63C8.59375 1.98754 8.84409 1.38335 9.29865 0.928743C9.7533 0.474134 10.3575 0.223755 11 0.223755C11.1599 0.223755 11.3211 0.239868 11.4791 0.271579C12.5964 0.498583 13.4062 1.49034 13.4062 2.63V3.33031C13.916 3.48525 14.4088 3.68949 14.8797 3.94098L15.3753 3.44538C15.8297 2.99107 16.4339 2.74086 17.0766 2.74086C17.7197 2.74086 18.3241 2.99107 18.7784 3.44538C19.7163 4.38395 19.7163 5.9105 18.7783 6.84838L18.2827 7.34398C18.5342 7.81496 18.7384 8.30777 18.8934 8.81746H19.5938C20.2363 8.81746 20.8404 9.06784 21.2951 9.52245C21.7497 9.97706 22 10.5813 22 11.2238C22 12.5505 20.9206 13.63 19.5938 13.63H18.8934C18.7385 14.1397 18.5342 14.6325 18.2827 15.1035L18.7783 15.5991C19.2326 16.0534 19.4828 16.6576 19.4828 17.3004C19.4828 17.9434 19.2326 18.5478 18.7783 19.0021C18.3091 19.4711 17.6927 19.7056 17.0766 19.7056C16.4603 19.7057 15.8443 19.4712 15.3753 19.0022L14.8797 18.5066C14.4087 18.7581 13.9159 18.9623 13.4062 19.1172V19.8175C13.4062 20.46 13.1559 21.0642 12.7013 21.5188C12.3656 21.8545 11.9435 22.0816 11.4806 22.1756C11.48 22.1757 11.4796 22.1758 11.4791 22.1759C11.3211 22.2076 11.1599 22.2238 11 22.2238ZM11.3438 21.5019H11.3442H11.3438ZM7.00713 16.9601C7.1323 16.9601 7.2582 16.9942 7.37034 17.064C8.01023 17.4625 8.70543 17.7506 9.43662 17.9202C9.74819 17.9925 9.96875 18.2701 9.96875 18.5899V19.8175C9.96875 20.3861 10.4314 20.8488 11 20.8488C11.0688 20.8488 11.1384 20.8418 11.2072 20.8281C11.4045 20.788 11.5849 20.6906 11.7291 20.5465C11.9239 20.3516 12.0312 20.0927 12.0312 19.8175V18.5899C12.0312 18.2701 12.2518 17.9925 12.5634 17.9202C13.2946 17.7505 13.9898 17.4625 14.6297 17.064C14.901 16.895 15.2532 16.9353 15.4792 17.1614L16.3476 18.0298C16.7496 18.4318 17.4039 18.4318 17.8062 18.0297C18.0007 17.8352 18.1079 17.5761 18.1079 17.3004C18.1079 17.0249 18.0007 16.766 17.8061 16.5713L16.9377 15.703C16.7116 15.4769 16.6713 15.1248 16.8402 14.8535C17.2387 14.2135 17.5268 13.5183 17.6964 12.7872C17.7687 12.4756 18.0463 12.255 18.3661 12.255H19.5938C20.1624 12.255 20.625 11.7924 20.625 11.2238C20.625 10.9486 20.5177 10.6897 20.3228 10.4948C20.1279 10.2998 19.869 10.1925 19.5938 10.1925H18.3661C18.0463 10.1925 17.7687 9.97195 17.6964 9.66038C17.5268 8.92922 17.2388 8.23403 16.8402 7.5941C16.6712 7.32271 16.7116 6.97062 16.9377 6.74456L17.8061 5.87621C18.2081 5.47424 18.2081 4.81991 17.806 4.41759C17.6115 4.22311 17.3524 4.11595 17.0766 4.11595C16.8012 4.11595 16.5422 4.22316 16.3476 4.41776L15.4792 5.28612C15.2531 5.51226 14.901 5.55257 14.6297 5.38357C13.9898 4.98508 13.2946 4.69702 12.5634 4.52738C12.2518 4.45506 12.0312 4.17744 12.0312 3.85762V2.63C12.0312 2.14145 11.6846 1.7164 11.2069 1.61934C11.1393 1.6058 11.0692 1.59875 11 1.59875C10.7248 1.59875 10.4659 1.70609 10.2709 1.901C10.0761 2.0959 9.96875 2.35479 9.96875 2.63V3.85762C9.96875 4.17744 9.74819 4.45506 9.43662 4.52733C8.70543 4.69697 8.01023 4.98504 7.37034 5.38353C7.09908 5.55257 6.74687 5.51218 6.52081 5.28608L5.65241 4.41768C5.25044 4.0157 4.59611 4.01579 4.19379 4.41785C3.99932 4.61233 3.89211 4.87138 3.89211 5.14716C3.89211 5.42263 3.99927 5.68156 4.19392 5.87616L5.06228 6.74452C5.28838 6.97062 5.32873 7.32271 5.15977 7.59406C4.76128 8.23399 4.47318 8.92918 4.30358 9.66034C4.23135 9.97195 3.95373 10.1925 3.63387 10.1925H2.40625C1.83764 10.1925 1.375 10.6551 1.375 11.2238C1.375 11.499 1.48234 11.7579 1.67724 11.9528C1.87211 12.1477 2.13104 12.255 2.40625 12.255H3.63387C3.95368 12.255 4.2313 12.4756 4.30358 12.7871C4.47318 13.5183 4.76124 14.2135 5.15977 14.8534C5.32877 15.1248 5.28838 15.4769 5.06228 15.7029L4.19388 16.5713C3.79191 16.9733 3.79195 17.6276 4.19405 18.0299C4.38848 18.2244 4.64759 18.3316 4.92336 18.3316C5.19883 18.3316 5.4578 18.2244 5.65241 18.0297L6.52081 17.1614C6.65345 17.0288 6.8295 16.9601 7.00713 16.9601Z" fill="white"/>
<path d="M11 16.0363C8.34638 16.0363 6.1875 13.8774 6.1875 11.2238C6.1875 8.57013 8.34638 6.41125 11 6.41125C11.1367 6.41125 11.2724 6.41706 11.4034 6.42844C12.6 6.5268 13.7127 7.06932 14.5331 7.9559C15.3581 8.8475 15.8125 10.0081 15.8125 11.2238C15.8125 12.4394 15.3581 13.6 14.5331 14.4916C13.7127 15.3782 12.6 15.9207 11.4001 16.0194C11.2724 16.0305 11.1367 16.0363 11 16.0363ZM11 7.78625C9.10456 7.78625 7.5625 9.32832 7.5625 11.2238C7.5625 13.1192 9.10456 14.6613 11 14.6613C11.097 14.6613 11.1926 14.6572 11.2841 14.6493C13.0538 14.5038 14.4375 12.9993 14.4375 11.2238C14.4375 9.44824 13.0538 7.94374 11.2874 7.79854C11.1926 7.79029 11.097 7.78625 11 7.78625Z" fill="white"/>
</g>
<defs>
<clipPath id="clip0">
<rect width="22" height="22" fill="white" transform="translate(0 0.223755)"/>
</clipPath>
</defs>
</svg>
