<svg width="22" height="18" viewBox="0 0 22 18" fill="none" xmlns="http://www.w3.org/2000/svg">
<path d="M22 11.0145C22 13.4278 21.2319 15.7186 19.7789 17.6396C19.4922 18.0187 18.9531 18.0923 18.5751 17.8064C18.1966 17.5201 18.1219 16.9811 18.4081 16.6026C19.6335 14.9827 20.2812 13.0503 20.2812 11.0145C20.2812 5.88477 16.1269 1.73828 11 1.73828C5.8696 1.73828 1.71875 5.88795 1.71875 11.0145C1.71875 13.0503 2.36647 14.9827 3.59175 16.6026C3.8781 16.9811 3.80341 17.5201 3.42491 17.8064C3.04625 18.0928 2.50746 18.0181 2.22095 17.6396C0.768066 15.7186 0 13.4278 0 11.0145C0 4.93442 4.92328 0.0195312 11 0.0195312C17.0801 0.0195312 22 4.93777 22 11.0145ZM16.4451 5.83894C16.7806 6.17447 16.7806 6.71863 16.4451 7.05415L13.6439 9.85535C13.8745 10.2805 14.0058 10.7673 14.0058 11.2839C14.0058 12.9414 12.6573 14.2897 11 14.2897C9.34251 14.2897 7.9942 12.9414 7.9942 11.2839C7.9942 9.62657 9.34251 8.27809 11 8.27809C11.5168 8.27809 12.0034 8.40935 12.4285 8.63997L15.2297 5.83878C15.5654 5.50325 16.1094 5.50325 16.4451 5.83894ZM12.287 11.2841C12.287 10.5744 11.7097 9.99701 11 9.99701C10.2903 9.99701 9.71295 10.5744 9.71295 11.2841C9.71295 11.9937 10.2903 12.5711 11 12.5711C11.7097 12.5711 12.287 11.9937 12.287 11.2841Z" fill="white"/>
</svg>
