<svg width="18" height="16" viewBox="0 0 18 16" fill="none" xmlns="http://www.w3.org/2000/svg">
<path fill-rule="evenodd" clip-rule="evenodd" d="M1.09835 10.5984C1.80161 9.89509 2.75544 9.5 3.75 9.5H9C9.99456 9.5 10.9484 9.89509 11.6517 10.5984C12.3549 11.3016 12.75 12.2554 12.75 13.25V14.75C12.75 15.1642 12.4142 15.5 12 15.5C11.5858 15.5 11.25 15.1642 11.25 14.75V13.25C11.25 12.6533 11.0129 12.081 10.591 11.659C10.169 11.2371 9.59674 11 9 11H3.75C3.15326 11 2.58097 11.2371 2.15901 11.659C1.73705 12.081 1.5 12.6533 1.5 13.25V14.75C1.5 15.1642 1.16421 15.5 0.75 15.5C0.335786 15.5 0 15.1642 0 14.75V13.25C0 12.2554 0.395088 11.3016 1.09835 10.5984Z" fill="#B0B1B6"/>
<path fill-rule="evenodd" clip-rule="evenodd" d="M6.375 2C5.13236 2 4.125 3.00736 4.125 4.25C4.125 5.49264 5.13236 6.5 6.375 6.5C7.61764 6.5 8.625 5.49264 8.625 4.25C8.625 3.00736 7.61764 2 6.375 2ZM2.625 4.25C2.625 2.17893 4.30393 0.5 6.375 0.5C8.44607 0.5 10.125 2.17893 10.125 4.25C10.125 6.32107 8.44607 8 6.375 8C4.30393 8 2.625 6.32107 2.625 4.25Z" fill="#B0B1B6"/>
<path fill-rule="evenodd" clip-rule="evenodd" d="M15 4.25C15.4142 4.25 15.75 4.58579 15.75 5V9.5C15.75 9.91421 15.4142 10.25 15 10.25C14.5858 10.25 14.25 9.91421 14.25 9.5V5C14.25 4.58579 14.5858 4.25 15 4.25Z" fill="#B0B1B6"/>
<path fill-rule="evenodd" clip-rule="evenodd" d="M12 7.25C12 6.83579 12.3358 6.5 12.75 6.5H17.25C17.6642 6.5 18 6.83579 18 7.25C18 7.66421 17.6642 8 17.25 8H12.75C12.3358 8 12 7.66421 12 7.25Z" fill="#B0B1B6"/>
</svg>
