<svg width="22" height="22" viewBox="0 0 22 22" fill="none" xmlns="http://www.w3.org/2000/svg">
<path fill-rule="evenodd" clip-rule="evenodd" d="M1.34243 14.1759C2.20197 13.3164 3.36776 12.8335 4.58333 12.8335H11C12.2156 12.8335 13.3814 13.3164 14.2409 14.1759C15.1004 15.0355 15.5833 16.2013 15.5833 17.4168V19.2502C15.5833 19.7564 15.1729 20.1668 14.6667 20.1668C14.1604 20.1668 13.75 19.7564 13.75 19.2502V17.4168C13.75 16.6875 13.4603 15.988 12.9445 15.4723C12.4288 14.9566 11.7293 14.6668 11 14.6668H4.58333C3.85399 14.6668 3.15452 14.9566 2.63879 15.4723C2.12306 15.988 1.83333 16.6875 1.83333 17.4168V19.2502C1.83333 19.7564 1.42293 20.1668 0.916667 20.1668C0.410406 20.1668 0 19.7564 0 19.2502V17.4168C0 16.2013 0.482886 15.0355 1.34243 14.1759Z" fill="#6E7585"/>
<path fill-rule="evenodd" clip-rule="evenodd" d="M7.79159 3.66683C6.2728 3.66683 5.04159 4.89805 5.04159 6.41683C5.04159 7.93561 6.2728 9.16683 7.79159 9.16683C9.31037 9.16683 10.5416 7.93561 10.5416 6.41683C10.5416 4.89805 9.31037 3.66683 7.79159 3.66683ZM3.20825 6.41683C3.20825 3.88552 5.26028 1.8335 7.79159 1.8335C10.3229 1.8335 12.3749 3.88552 12.3749 6.41683C12.3749 8.94813 10.3229 11.0002 7.79159 11.0002C5.26028 11.0002 3.20825 8.94813 3.20825 6.41683Z" fill="#6E7585"/>
<path fill-rule="evenodd" clip-rule="evenodd" d="M15.8517 6.68499C16.2097 6.32701 16.7901 6.32701 17.1481 6.68499L21.7314 11.2683C22.0894 11.6263 22.0894 12.2067 21.7314 12.5647C21.3735 12.9227 20.7931 12.9227 20.4351 12.5647L15.8517 7.98135C15.4938 7.62337 15.4938 7.04297 15.8517 6.68499Z" fill="#6E7585"/>
<path fill-rule="evenodd" clip-rule="evenodd" d="M21.7314 6.68499C22.0894 7.04297 22.0894 7.62337 21.7314 7.98135L17.1481 12.5647C16.7901 12.9227 16.2097 12.9227 15.8517 12.5647C15.4938 12.2067 15.4938 11.6263 15.8517 11.2683L20.4351 6.68499C20.7931 6.32701 21.3735 6.32701 21.7314 6.68499Z" fill="#6E7585"/>
</svg>
