<svg width="22" height="22" viewBox="0 0 22 22" fill="none" xmlns="http://www.w3.org/2000/svg">
<path fill-rule="evenodd" clip-rule="evenodd" d="M17.1482 4.85149C17.5062 5.20947 17.5062 5.78988 17.1482 6.14786L6.14822 17.1479C5.79024 17.5058 5.20984 17.5058 4.85186 17.1479C4.49388 16.7899 4.49388 16.2095 4.85186 15.8515L15.8519 4.85149C16.2098 4.49351 16.7902 4.49351 17.1482 4.85149Z" fill="#6E7585"/>
<path fill-rule="evenodd" clip-rule="evenodd" d="M4.85186 4.85149C5.20984 4.49351 5.79024 4.49351 6.14822 4.85149L17.1482 15.8515C17.5062 16.2095 17.5062 16.7899 17.1482 17.1479C16.7902 17.5058 16.2098 17.5058 15.8519 17.1479L4.85186 6.14786C4.49388 5.78988 4.49388 5.20947 4.85186 4.85149Z" fill="#6E7585"/>
</svg>
