<svg width="22" height="22" viewBox="0 0 22 22" fill="none" xmlns="http://www.w3.org/2000/svg">
<g clip-path="url(#clip0)">
<path d="M8.9375 19.25H2.52089C1.13028 19.25 0 18.1197 0 16.7291V5.27089C0 3.88028 1.13028 2.75 2.52089 2.75H4.35411C4.73361 2.75 5.04161 3.058 5.04161 3.4375C5.04161 3.817 4.73361 4.125 4.35411 4.125H2.52089C1.88928 4.125 1.375 4.63928 1.375 5.27089V16.7291C1.375 17.3607 1.88928 17.875 2.52089 17.875H8.9375C9.317 17.875 9.625 18.183 9.625 18.5625C9.625 18.942 9.317 19.25 8.9375 19.25Z" fill="white"/>
<path d="M14.8963 7.79161C14.5168 7.79161 14.2088 7.48361 14.2088 7.10411V5.27089C14.2088 4.63928 13.6945 4.125 13.0629 4.125H11.2295C10.85 4.125 10.542 3.817 10.542 3.4375C10.542 3.058 10.85 2.75 11.2295 2.75H13.0629C14.4535 2.75 15.5838 3.88028 15.5838 5.27089V7.10411C15.5838 7.48361 15.2758 7.79161 14.8963 7.79161Z" fill="white"/>
<path d="M10.3129 5.95839H5.27127C4.38655 5.95839 3.66699 5.23883 3.66699 4.35411V2.52089C3.66699 2.14139 3.97499 1.83339 4.35449 1.83339H5.36661C5.66638 0.776459 6.64073 0 7.79199 0C8.94342 0 9.91777 0.776459 10.2175 1.83339H11.2295C11.609 1.83339 11.917 2.14139 11.917 2.52089V4.35411C11.917 5.23883 11.1974 5.95839 10.3129 5.95839ZM5.04199 3.20839V4.35411C5.04199 4.48067 5.14471 4.58339 5.27127 4.58339H10.3129C10.4394 4.58339 10.542 4.48067 10.542 4.35411V3.20839H9.62538C9.24588 3.20839 8.93788 2.90039 8.93788 2.52089C8.93788 1.88928 8.4236 1.375 7.79199 1.375C7.16039 1.375 6.64627 1.88928 6.64627 2.52089C6.64627 2.90039 6.33827 3.20839 5.95877 3.20839H5.04199Z" fill="white"/>
<path d="M20.3959 22H12.6041C11.7196 22 11 21.2805 11 20.3959V10.7709C11 9.88618 11.7196 9.16663 12.6041 9.16663H17.8027C18.4754 9.16663 19.1088 9.4288 19.5845 9.90549L21.2611 11.5821C21.7378 12.0588 22 12.6912 22 13.3641V20.3959C22 21.2805 21.2804 22 20.3959 22ZM12.6041 10.5416C12.4777 10.5416 12.375 10.6443 12.375 10.7709V20.3959C12.375 20.5223 12.4777 20.625 12.6041 20.625H20.3959C20.5223 20.625 20.625 20.5223 20.625 20.3959V13.3641C20.625 13.0625 20.5031 12.7673 20.2895 12.5538L18.6129 10.8772C18.3994 10.6637 18.1041 10.5416 17.8027 10.5416H12.6041Z" fill="white"/>
<path d="M18.4482 15.5834H14.3232C13.9437 15.5834 13.6357 15.2754 13.6357 14.8959C13.6357 14.5164 13.9437 14.2084 14.3232 14.2084H18.4482C18.8277 14.2084 19.1357 14.5164 19.1357 14.8959C19.1357 15.2754 18.8277 15.5834 18.4482 15.5834Z" fill="white"/>
<path d="M18.4482 18.3334H14.3232C13.9437 18.3334 13.6357 18.0254 13.6357 17.6459C13.6357 17.2664 13.9437 16.9584 14.3232 16.9584H18.4482C18.8277 16.9584 19.1357 17.2664 19.1357 17.6459C19.1357 18.0254 18.8277 18.3334 18.4482 18.3334Z" fill="white"/>
</g>
<defs>
<clipPath id="clip0">
<rect width="22" height="22" fill="white"/>
</clipPath>
</defs>
</svg>
