<svg width="22" height="22" viewBox="0 0 22 22" fill="none" xmlns="http://www.w3.org/2000/svg">
<g clip-path="url(#clip0)">
<path d="M22 13.0145C22 15.4278 21.2319 17.7186 19.7789 19.6396C19.4922 20.0187 18.9531 20.0923 18.5751 19.8064C18.1966 19.5201 18.1219 18.9811 18.4081 18.6026C19.6335 16.9827 20.2812 15.0503 20.2812 13.0145C20.2812 7.88477 16.1269 3.73828 11 3.73828C5.8696 3.73828 1.71875 7.88795 1.71875 13.0145C1.71875 15.0503 2.36647 16.9827 3.59175 18.6026C3.8781 18.9811 3.80341 19.5201 3.42491 19.8064C3.04625 20.0928 2.50746 20.0181 2.22095 19.6396C0.768066 17.7186 0 15.4278 0 13.0145C0 6.93442 4.92328 2.01953 11 2.01953C17.0801 2.01953 22 6.93777 22 13.0145ZM16.4451 7.83894C16.7806 8.17447 16.7806 8.71863 16.4451 9.05415L13.6439 11.8553C13.8745 12.2805 14.0058 12.7673 14.0058 13.2839C14.0058 14.9414 12.6573 16.2897 11 16.2897C9.34251 16.2897 7.9942 14.9414 7.9942 13.2839C7.9942 11.6266 9.34251 10.2781 11 10.2781C11.5168 10.2781 12.0034 10.4093 12.4285 10.64L15.2297 7.83878C15.5654 7.50325 16.1094 7.50325 16.4451 7.83894ZM12.287 13.2841C12.287 12.5744 11.7097 11.997 11 11.997C10.2903 11.997 9.71295 12.5744 9.71295 13.2841C9.71295 13.9937 10.2903 14.5711 11 14.5711C11.7097 14.5711 12.287 13.9937 12.287 13.2841Z" fill="white"/>
</g>
<defs>
<clipPath id="clip0">
<rect width="22" height="22" fill="white"/>
</clipPath>
</defs>
</svg>
